<?xml version="1.0" standalone="no"?><!DOCTYPE svg PUBLIC "-//W3C//DTD SVG 1.1//EN" "http://www.w3.org/Graphics/SVG/1.1/DTD/svg11.dtd"><svg t="1745546823301" class="icon" viewBox="0 0 1024 1024" version="1.1" xmlns="http://www.w3.org/2000/svg" p-id="5652" xmlns:xlink="http://www.w3.org/1999/xlink" width="200" height="200"><path d="M0 512a512 512 0 1 0 1024 0A512 512 0 0 0 0 512" fill="#F7F8FA" p-id="5653"></path><path d="M743.232 278.656c-12.8 20.48-25.6 40.96-38.592 61.44-6.4 10.368-13.184 20.608-19.392 31.104-2.304 3.968-5.056 5.12-9.6 5.632-10.688 1.408-16.576-2.688-22.08-11.776-16.192-26.944-33.536-53.248-50.432-79.808l-4.224-6.08v153.856h-39.04V200.896c11.84 0 23.552-0.192 35.264 0.256 1.728 0 3.712 2.752 4.992 4.672l67.392 107.52 5.376 8.32 17.088-27.264c18.368-29.696 36.736-59.264 54.912-89.024 2.048-3.264 4.096-4.8 8-4.672 10.24 0.384 20.352 0.128 30.848 0.128v232.128h-38.848V279.04a67.52 67.52 0 0 0-1.664-0.384M406.208 649.792c0-45.248-33.536-79.296-78.08-79.232a77.056 77.056 0 0 0-78.08 77.888c0 46.72 33.472 80 80.256 80 42.432-0.128 75.968-34.816 75.904-78.656m42.368-0.192a118.72 118.72 0 0 1-119.296 120.448c-67.584 0.256-121.408-52.16-121.6-118.336-0.064-68.864 51.52-121.728 117.76-122.88 69.888-1.216 124.48 54.4 123.136 120.768M234.496 201.024H275.2v92.8h107.072V201.344h41.024v231.552H382.72V333.184H275.648v99.84h-41.152zM583.68 722.688l35.392-19.328 3.264 4.928a62.272 62.272 0 0 0 71.808 25.472c9.792-3.52 17.792-9.344 20.48-20.032 3.008-12.416-1.728-23.104-14.912-28.672-14.4-6.208-29.696-10.496-44.8-15.104-14.08-4.416-27.968-9.28-39.68-18.496-31.04-24.512-30.848-73.216 0.32-99.2 34.368-28.672 97.792-23.872 126.848 9.856 4.992 5.696 8.512 12.608 13.312 19.776l-33.28 20.288c-1.792-2.752-3.392-5.056-4.864-7.488a51.584 51.584 0 0 0-64.256-20.096c-10.752 4.672-18.496 12.032-18.944 24.832-0.448 12.608 7.104 20.096 17.472 24.064 15.424 5.888 31.552 9.728 46.976 15.424 11.52 4.352 23.68 8.768 33.536 15.808 36.672 25.984 32.832 83.392-6.336 106.688-36.608 21.76-95.936 14.4-125.568-16.064-6.208-6.336-10.688-14.336-16.768-22.656M328.576 803.712c24.448 0 48.96 0.128 73.408-0.128 5.952-0.064 8.128 1.792 7.744 7.808a125.184 125.184 0 0 0 0 17.664c0.256 5.056-1.728 6.72-6.72 6.656-17.408-0.192-34.88-0.064-52.288-0.064-31.744 0-63.36-0.128-95.168 0.128-6.4 0-8.96-1.92-8.32-8.512 0.384-5.376 0.256-10.88 0-16.256-0.448-5.632 1.664-7.488 7.296-7.424 24.704 0.256 49.344 0.128 74.048 0.128" fill="#6B798E" p-id="5654"></path></svg>